# xmcd
#
# Track frame offsets: 
#        150
#        13796
#        28218
#        41303
#        54694
#        67090
#        81070
#        95725
#        108473
#        120625
#        133870
#        147707
#        161745
#        175930
#        191026
#        204780
#        216908
#        229937
#        242645
#        254844
#
# Disc length: 3573 seconds
#
# Revision: 0
# Processed by: cddbd v1.5.2PL0 Copyright (c) Steve Scherf et al.
# Submitted via: ExactAudioCopy v0.99pb5
#
DISCID=340df314
DTITLE=Various Artist - The Beginner's Guide To Cajun - CD1
DYEAR=1937
DGENRE=Folk
TTITLE0=Joseph Falcon - Lafayette (1928)
TTITLE1=Cleoma Breaux and Joseph F. Falcon - Le Vieux Soulard Et Sa Femm
TTITLE1=e (1928)
TTITLE2=Leo Soileau and Mayuse Lafleur - Your Father Put Me Out (1928)
TTITLE3=Soileau and Robin - Easy Rider Blues (1929)
TTITLE4=Leo Soileau and Moise Robin - Le Blues De Neg' Francais (1929)
TTITLE5=Amadie Breaux - Ma Blonde Est Partie (Jolie Blonde) (1929)
TTITLE6=Angelas Lejeune - Bayou Pom Pom One Step (1929)
TTITLE7=Dennis McGee - Mon Chere Bebe Creole (1929)
TTITLE8=Dennis McGee - One Step De Chupic (1929)
TTITLE9=Dennis McGee and Ernest Fruge - Two Step De La Ville Platte (193
TTITLE9=0)
TTITLE10=Amedie Ardoin and Dennis McGee - Oberlin (1934)
TTITLE11=Amedie Ardoin - Aimez-Moi Ce Soir (1934)
TTITLE12=Amedie Ardoin - Si Dur D'Etre Seul (1934) 
TTITLE13=Amedie Ardoin - La Vaise Du Ballard (1934)
TTITLE14=Leo Soileau's Four Aces - La Valse De Gueydan (1935)
TTITLE15=Nathan Abshire and Rayne-Bo Ramblers - One-Step De Lacassine (1
TTITLE15=935)
TTITLE16=Falcon Trio - (My Old Used To Be) Mon Vieux D'Autrefois (1936
TTITLE16=)
TTITLE17=Hackberry Ramblers - J'Ai Pas Bien Fey (1936)
TTITLE18=Hackberry Ramblers - Darbone's Creole Stomp (1937)
TTITLE19=Riverside Ramblers - Wondering (1937)
EXTD=
EXTT0=
EXTT1=
EXTT2=
EXTT3=
EXTT4=
EXTT5=
EXTT6=
EXTT7=
EXTT8=
EXTT9=
EXTT10=
EXTT11=
EXTT12=
EXTT13=
EXTT14=
EXTT15=
EXTT16=
EXTT17=
EXTT18=
EXTT19=
PLAYORDER=
